<?xml version="1.0" encoding="utf-8"?>
<!-- Generator: Adobe Illustrator 24.1.0, SVG Export Plug-In . SVG Version: 6.00 Build 0)  -->
<svg version="1.1" id="圖層_1" xmlns="http://www.w3.org/2000/svg" xmlns:xlink="http://www.w3.org/1999/xlink" x="0px" y="0px"
	 viewBox="0 0 28 18" style="enable-background:new 0 0 28 18;" xml:space="preserve">
<style type="text/css">
	.st0{fill-rule:evenodd;clip-rule:evenodd;fill:#FF9900;}
</style>
<path class="st0" d="M17.1,0h8.4c1,0,1.8,0.8,1.8,1.8v14.4c0,1-0.8,1.8-1.8,1.8H8.8c-0.3,0-0.5-0.2-0.5-0.5v-1.4
	c0-0.3-0.2-0.5-0.5-0.5c-0.2,0-0.4,0.2-0.4,0.5v1.4c0,0.3-0.2,0.5-0.5,0.5H1.8c-1,0-1.8-0.8-1.8-1.8v-2.5c0-0.7,0.4-1.3,1-1.6
	c2.5-1.3,2.5-4.8,0-6.1C0.4,5.6,0,5,0,4.3V1.8C0,0.8,0.8,0,1.8,0h5.1c0.3,0,0.5,0.2,0.5,0.5v1.4c0,0.3,0.2,0.5,0.5,0.5
	c0.2,0,0.4-0.2,0.4-0.5V0.5C8.3,0.2,8.5,0,8.8,0H17.1z M7.9,13.1c0.3,0,0.5-0.2,0.5-0.5v-1.8c0-0.3-0.2-0.5-0.5-0.5
	c-0.3,0-0.5,0.2-0.5,0.5v1.8C7.4,12.9,7.6,13.1,7.9,13.1z M7.9,7.6c0.3,0,0.5-0.2,0.5-0.5V5.3c0-0.3-0.2-0.5-0.5-0.5
	c-0.3,0-0.5,0.2-0.5,0.5v1.8C7.4,7.4,7.6,7.6,7.9,7.6z M16.7,8.6c-0.3,0.4-0.7,0.8-1.2,1.1H20c-0.4-0.3-0.8-0.7-1.1-1.1H16.7z
	 M22.5,7.7v0.9H20c0.7,0.7,1.7,1.2,2.8,1.5c-0.2,0.2-0.5,0.6-0.6,0.8c-0.5-0.2-1-0.4-1.5-0.7c-0.1,2-0.3,2.8-0.6,3.2
	c-0.2,0.2-0.4,0.3-0.8,0.3c-0.3,0-0.8,0-1.4,0c0-0.3-0.1-0.7-0.3-0.9c0.5,0.1,1,0.1,1.2,0.1c0.2,0,0.3,0,0.4-0.1
	c0.2-0.2,0.3-0.8,0.4-2.2h-2.3c-0.3,1.5-1,2.6-3.3,3.2c-0.1-0.3-0.4-0.6-0.6-0.8c1.9-0.5,2.5-1.3,2.8-2.4h-1.5v-0.4
	c-0.4,0.3-0.8,0.5-1.3,0.7c-0.1-0.2-0.4-0.6-0.6-0.8c1-0.4,1.8-0.9,2.4-1.5h-2.1V7.7h2.9c0.2-0.3,0.4-0.6,0.6-0.9h-2.9V5.9h1.7
	c-0.2-0.4-0.5-0.8-0.8-1.2l0.8-0.4c0.3,0.4,0.7,0.9,0.9,1.3l-0.5,0.3h1.2c0.2-0.6,0.4-1.2,0.5-1.8l1,0.1c-0.1,0.6-0.2,1.1-0.4,1.7
	h1.1c0.3-0.4,0.7-1.1,0.9-1.5l0.9,0.3c-0.3,0.4-0.6,0.9-0.9,1.2h1.5v0.9h-4c-0.1,0.3-0.3,0.6-0.5,0.9H22.5z"/>
</svg>
