<svg width="24" height="28" viewBox="0 0 24 28" fill="none" xmlns="http://www.w3.org/2000/svg">
<path d="M15.0594 26.5C19.2031 26.5 22.5594 22.9156 22.5594 19C22.5594 19 22.5594 21.3125 22.5594 19V13.0031C22.5594 12.175 21.8938 11.5 21.0594 11.5C20.2313 11.5 19.5594 12.1719 19.5594 13.0031V13.5H18.5594V11.0063C18.5594 10.175 17.8938 9.5 17.0594 9.5C16.2313 9.5 15.5594 10.1719 15.5594 11.0063V12.5H14.5594V10.0063C14.5594 9.175 13.8938 8.5 13.0594 8.5C12.2313 8.5 11.5594 9.17188 11.5594 10.0063V13.5H10.5594V3.00625C10.5594 2.175 9.89376 1.5 9.05939 1.5C8.23126 1.5 7.55939 2.16562 7.55939 3.00625V14.3C5.50001 12.1 2.79064 9.67813 1.68126 10.7969C0.593764 11.8906 3.39689 14.9031 7.30626 21.4844C9.07189 24.45 11.3031 26.5 15.0594 26.5ZM23.5625 19C23.5625 23.6937 19.7563 27.5 15.0625 27.5C11.95 27.5 8.66564 26.0469 6.40314 21.9281C3.14064 15.9813 -1.03436 12.0844 0.953139 10.0969C2.37501 8.675 4.60626 10.0406 6.56251 11.8687V3.00938C6.56251 1.61563 7.68126 0.5 9.06251 0.5C10.4531 0.5 11.5625 1.62188 11.5625 3.00938V8C11.9813 7.6875 12.5 7.50313 13.0625 7.50313C14.1438 7.50313 15.0563 8.18125 15.4094 9.13125C15.85 8.74063 16.4281 8.50313 17.0625 8.50313C18.4531 8.50313 19.5625 9.62188 19.5625 11V11.0125C19.9813 10.7 20.5 10.5156 21.0625 10.5156C22.4531 10.5156 23.5625 11.6344 23.5625 13.0156V19Z" fill="white"/>
</svg>
