<svg width="79" height="78" viewBox="0 0 79 78" fill="none" xmlns="http://www.w3.org/2000/svg">
<path d="M30.5635 39.9401C30.5898 38.2329 30.7674 36.8843 31.0962 35.8944C31.425 34.9045 32.0958 33.807 33.1085 32.6019L35.693 29.6967C36.7978 28.3338 37.3502 26.8704 37.3502 25.3067C37.3502 23.8003 36.9885 22.6239 36.2651 21.7774C35.5417 20.9166 34.4895 20.4862 33.1085 20.4862C31.767 20.4862 30.6885 20.8736 29.873 21.6483C29.0575 22.423 28.6498 23.4631 28.6498 24.7687H25C25.0263 22.4445 25.7826 20.5723 27.2688 19.152C28.7682 17.7173 30.7148 17 33.1085 17C35.5943 17 37.5277 17.7317 38.9088 19.195C40.3029 20.644 41 22.6382 41 25.1775C41 27.6882 39.9346 30.163 37.8039 32.6019L35.6535 34.926C34.6934 36.0881 34.2133 37.7595 34.2133 39.9401H30.5635ZM30.4057 46.7619C30.4057 46.1163 30.5832 45.5783 30.9383 45.1479C31.3066 44.7032 31.8459 44.4808 32.5561 44.4808C33.2663 44.4808 33.8056 44.7032 34.1739 45.1479C34.5421 45.5783 34.7263 46.1163 34.7263 46.7619C34.7263 47.4075 34.5421 47.9455 34.1739 48.3759C33.8056 48.792 33.2663 49 32.5561 49C31.8459 49 31.3066 48.792 30.9383 48.3759C30.5832 47.9455 30.4057 47.4075 30.4057 46.7619Z" fill="#E5E5E5"/>
<circle cx="33" cy="33" r="30" stroke="#E5E5E5" stroke-width="6"/>
<path fill-rule="evenodd" clip-rule="evenodd" d="M75.9344 75.3989C74.5676 76.7658 72.3515 76.7658 70.9847 75.3989L53.7677 58.182C52.4009 56.8152 52.4009 54.5991 53.7677 53.2323V53.2323C55.1346 51.8654 57.3507 51.8654 58.7175 53.2323L75.9344 70.4492C77.3012 71.816 77.3012 74.0321 75.9344 75.3989V75.3989Z" fill="#E5E5E5"/>
</svg>
