<svg width="103" height="70" viewBox="0 0 103 70" fill="none" xmlns="http://www.w3.org/2000/svg">
<path d="M27.8378 22.4H16.7026V47.6H27.8378V22.4Z" fill="#FF9900"/>
<path d="M27.8378 51.8H15.6588C13.9291 51.8 12.527 50.3898 12.527 48.65V21.35C12.527 19.6102 13.9291 18.2 15.6588 18.2H42.7941C40.858 15.2324 39.3129 12.3648 38.1113 9.79999H6.26351C2.80423 9.79999 0 12.6206 0 16.1V28.7C3.45928 28.7 6.26351 31.5206 6.26351 35C6.26351 38.4794 3.45928 41.3 0 41.3V53.9C0 57.3794 2.80423 60.2 6.26351 60.2H28.0074C27.8928 59.4455 27.8378 58.7378 27.8378 58.1V51.8Z" fill="#FF9900"/>
<path d="M50.6816 20.0292C50.8583 21.082 51.7691 21.875 52.8564 21.875H55.0992C56.4313 21.875 57.4915 20.7129 57.3148 19.4141C56.7982 15.5586 55.0857 12.0039 52.3399 9.20118C50.3826 7.19141 49.132 4.64843 48.7514 1.88672C48.6019 0.806641 47.6776 0 46.563 0H44.3339C43.0017 0 41.9686 1.16211 42.1182 2.46093C42.6483 6.82227 44.5649 10.8418 47.6368 14C49.268 15.668 50.3145 17.7597 50.6816 20.0292ZM65.9054 20.0292C66.0822 21.082 66.9929 21.875 68.0802 21.875H70.323C71.6552 21.875 72.7154 20.7129 72.5386 19.4141C72.0221 15.5586 70.3095 12.0039 67.5637 9.20118C65.6064 7.19141 64.3558 4.64843 63.9753 1.88672C63.8258 0.806641 62.9014 0 61.7868 0H59.5577C58.2255 0 57.1789 1.16211 57.3421 2.46093C57.8721 6.82227 59.7887 10.8418 62.8606 14C64.4918 15.668 65.5384 17.7597 65.9054 20.0292ZM87.776 26.25H37.7549C35.3491 26.25 33.4053 28.2051 33.4053 30.625V56.875C33.4053 64.1211 39.2501 70 46.4543 70H72.5522C79.7564 70 85.6012 64.1211 85.6012 56.875H87.776C96.1764 56.875 103 50.0118 103 41.5625C103 33.1132 96.1764 26.25 87.776 26.25ZM87.776 48.125H85.6012V35H87.776C91.3781 35 94.3005 37.9394 94.3005 41.5625C94.3005 45.1856 91.3781 48.125 87.776 48.125Z" fill="#FF9900"/>
</svg>
